<?xml version="1.0" encoding="UTF-8" standalone="no"?>
<!DOCTYPE svg PUBLIC "-//W3C//DTD SVG 1.1//EN"
 "http://www.w3.org/Graphics/SVG/1.1/DTD/svg11.dtd">
<!-- Generated by graphviz version 2.38.0 (20140413.2041)
 -->
<!-- Title: model Pages: 1 -->
<svg width="1457pt" height="689pt"
 viewBox="0.00 0.00 1456.76 689.20" xmlns="http://www.w3.org/2000/svg" xmlns:xlink="http://www.w3.org/1999/xlink">
<g id="graph0" class="graph" transform="scale(1 1) rotate(0) translate(4 685.2)">
<title>model</title>
<polygon fill="white" stroke="none" points="-4,4 -4,-685.2 1452.76,-685.2 1452.76,4 -4,4"/>
<!-- start_Keygen_state -->
<g id="node1" class="node"><title>start_Keygen_state</title>
<g id="a_node1"><a xlink:title="Class Keygen, SM state, State start">
<ellipse fill="black" stroke="black" cx="651" cy="-674" rx="7.2" ry="7.2"/>
</a>
</g>
</g>
<!-- Keygen_state_main -->
<g id="node2" class="node"><title>Keygen_state_main</title>
<g id="a_node2"><a xlink:title="Class Keygen, SM state, State main">
<path fill="none" stroke="black" d="M675,-629.8C675,-629.8 627,-629.8 627,-629.8 621,-629.8 615,-623.8 615,-617.8 615,-617.8 615,-605.8 615,-605.8 615,-599.8 621,-593.8 627,-593.8 627,-593.8 675,-593.8 675,-593.8 681,-593.8 687,-599.8 687,-605.8 687,-605.8 687,-617.8 687,-617.8 687,-623.8 681,-629.8 675,-629.8"/>
<text text-anchor="middle" x="651" y="-607.6" font-family="Times,serif" font-size="14.00">main</text>
</a>
</g>
</g>
<!-- start_Keygen_state&#45;&gt;Keygen_state_main -->
<g id="edge1" class="edge"><title>start_Keygen_state&#45;&gt;Keygen_state_main</title>
<g id="a_edge1"><a xlink:title="start to main">
<path fill="none" stroke="black" d="M651,-666.558C651,-660.187 651,-649.997 651,-640.193"/>
<polygon fill="black" stroke="black" points="654.5,-639.905 651,-629.905 647.5,-639.905 654.5,-639.905"/>
</a>
</g>
</g>
<!-- Keygen_state_usage -->
<g id="node3" class="node"><title>Keygen_state_usage</title>
<g id="a_node3"><a xlink:title="Class Keygen, SM state, State usage">
<path fill="none" stroke="black" d="M60,-541C60,-541 12,-541 12,-541 6,-541 0,-535 0,-529 0,-529 0,-517 0,-517 0,-511 6,-505 12,-505 12,-505 60,-505 60,-505 66,-505 72,-511 72,-517 72,-517 72,-529 72,-529 72,-535 66,-541 60,-541"/>
<text text-anchor="middle" x="36" y="-518.8" font-family="Times,serif" font-size="14.00">usage</text>
</a>
</g>
</g>
<!-- Keygen_state_main&#45;&gt;Keygen_state_usage -->
<g id="edge2" class="edge"><title>Keygen_state_main&#45;&gt;Keygen_state_usage</title>
<g id="a_edge2"><a xlink:title="From main to usage on no_args_given_or_ARG1_invalid">
<path fill="none" stroke="black" d="M614.917,-610.075C486.421,-607.32 57.6944,-596.6 37.4782,-575.8 31.2587,-569.401 29.6368,-560.184 29.9834,-551.294"/>
<polygon fill="black" stroke="black" points="33.4793,-551.529 31.1372,-541.196 26.5245,-550.734 33.4793,-551.529"/>
</a>
</g>
<text text-anchor="middle" x="133.261" y="-563.2" font-family="Times,serif" font-size="14.00">no_args_given_or_ARG1_invalid</text>
</g>
<!-- Keygen_state_help -->
<g id="node4" class="node"><title>Keygen_state_help</title>
<g id="a_node4"><a xlink:title="Class Keygen, SM state, State help">
<path fill="none" stroke="black" d="M372,-487C372,-487 324,-487 324,-487 318,-487 312,-481 312,-475 312,-475 312,-463 312,-463 312,-457 318,-451 324,-451 324,-451 372,-451 372,-451 378,-451 384,-457 384,-463 384,-463 384,-475 384,-475 384,-481 378,-487 372,-487"/>
<text text-anchor="middle" x="348" y="-464.8" font-family="Times,serif" font-size="14.00">help</text>
</a>
</g>
</g>
<!-- Keygen_state_main&#45;&gt;Keygen_state_help -->
<g id="edge3" class="edge"><title>Keygen_state_main&#45;&gt;Keygen_state_help</title>
<g id="a_edge3"><a xlink:title="From main to help on h_or_help">
<path fill="none" stroke="black" d="M614.872,-611.502C546.339,-612.036 401.17,-609.086 366.234,-575.8 345.31,-555.865 343.044,-521.265 344.509,-497.079"/>
<polygon fill="black" stroke="black" points="347.997,-497.367 345.357,-487.107 341.023,-496.774 347.997,-497.367"/>
</a>
</g>
<text text-anchor="middle" x="395.383" y="-563.2" font-family="Times,serif" font-size="14.00">h_or_help</text>
</g>
<!-- Keygen_state_license -->
<g id="node5" class="node"><title>Keygen_state_license</title>
<g id="a_node5"><a xlink:title="Class Keygen, SM state, State license">
<path fill="none" stroke="black" d="M404,-379C404,-379 356,-379 356,-379 350,-379 344,-373 344,-367 344,-367 344,-355 344,-355 344,-349 350,-343 356,-343 356,-343 404,-343 404,-343 410,-343 416,-349 416,-355 416,-355 416,-367 416,-367 416,-373 410,-379 404,-379"/>
<text text-anchor="middle" x="380" y="-356.8" font-family="Times,serif" font-size="14.00">license</text>
</a>
</g>
</g>
<!-- Keygen_state_main&#45;&gt;Keygen_state_license -->
<g id="edge4" class="edge"><title>Keygen_state_main&#45;&gt;Keygen_state_license</title>
<g id="a_edge4"><a xlink:title="From main to license on l_or_license">
<path fill="none" stroke="black" d="M614.923,-607.904C569.619,-602.399 492.197,-586.529 445.579,-541 403.051,-499.465 387.918,-428.098 382.673,-389.206"/>
<polygon fill="black" stroke="black" points="386.131,-388.65 381.441,-379.15 379.183,-389.501 386.131,-388.65"/>
</a>
</g>
<text text-anchor="middle" x="480.21" y="-518.8" font-family="Times,serif" font-size="14.00">l_or_license</text>
</g>
<!-- Keygen_state_validate -->
<g id="node6" class="node"><title>Keygen_state_validate</title>
<g id="a_node6"><a xlink:title="Class Keygen, SM state, State validate">
<path fill="none" stroke="black" d="M583,-541C583,-541 535,-541 535,-541 529,-541 523,-535 523,-529 523,-529 523,-517 523,-517 523,-511 529,-505 535,-505 535,-505 583,-505 583,-505 589,-505 595,-511 595,-517 595,-517 595,-529 595,-529 595,-535 589,-541 583,-541"/>
<text text-anchor="middle" x="559" y="-518.8" font-family="Times,serif" font-size="14.00">validate</text>
</a>
</g>
</g>
<!-- Keygen_state_main&#45;&gt;Keygen_state_validate -->
<g id="edge5" class="edge"><title>Keygen_state_main&#45;&gt;Keygen_state_validate</title>
<g id="a_edge5"><a xlink:title="From main to validate on v_or_validate">
<path fill="none" stroke="black" d="M614.841,-606.601C595.206,-602.284 572.462,-593.534 560.024,-575.8 555.103,-568.785 553.703,-559.817 553.885,-551.322"/>
<polygon fill="black" stroke="black" points="557.372,-551.625 554.76,-541.357 550.398,-551.012 557.372,-551.625"/>
</a>
</g>
<text text-anchor="middle" x="599.488" y="-563.2" font-family="Times,serif" font-size="14.00">v_or_validate</text>
</g>
<!-- Keygen_state_generate_cd -->
<g id="node11" class="node"><title>Keygen_state_generate_cd</title>
<g id="a_node11"><a xlink:title="Class Keygen, SM state, State generate_cd">
<path fill="none" stroke="black" d="M842.625,-433C842.625,-433 783.375,-433 783.375,-433 777.375,-433 771.375,-427 771.375,-421 771.375,-421 771.375,-409 771.375,-409 771.375,-403 777.375,-397 783.375,-397 783.375,-397 842.625,-397 842.625,-397 848.625,-397 854.625,-403 854.625,-409 854.625,-409 854.625,-421 854.625,-421 854.625,-427 848.625,-433 842.625,-433"/>
<text text-anchor="middle" x="813" y="-410.8" font-family="Times,serif" font-size="14.00">generate_cd</text>
</a>
</g>
</g>
<!-- Keygen_state_main&#45;&gt;Keygen_state_generate_cd -->
<g id="edge11" class="edge"><title>Keygen_state_main&#45;&gt;Keygen_state_generate_cd</title>
<g id="a_edge11"><a xlink:title="From main to generate_cd on cd">
<path fill="none" stroke="black" d="M665.376,-593.513C694.137,-558.929 758.854,-481.108 792.227,-440.979"/>
<polygon fill="black" stroke="black" points="794.953,-443.175 798.656,-433.248 789.571,-438.699 794.953,-443.175"/>
</a>
</g>
<text text-anchor="middle" x="744.607" y="-518.8" font-family="Times,serif" font-size="14.00">cd</text>
</g>
<!-- Keygen_state_generate_oem -->
<g id="node12" class="node"><title>Keygen_state_generate_oem</title>
<g id="a_node12"><a xlink:title="Class Keygen, SM state, State generate_oem">
<path fill="none" stroke="black" d="M1045.02,-433C1045.02,-433 974.984,-433 974.984,-433 968.984,-433 962.984,-427 962.984,-421 962.984,-421 962.984,-409 962.984,-409 962.984,-403 968.984,-397 974.984,-397 974.984,-397 1045.02,-397 1045.02,-397 1051.02,-397 1057.02,-403 1057.02,-409 1057.02,-409 1057.02,-421 1057.02,-421 1057.02,-427 1051.02,-433 1045.02,-433"/>
<text text-anchor="middle" x="1010" y="-410.8" font-family="Times,serif" font-size="14.00">generate_oem</text>
</a>
</g>
</g>
<!-- Keygen_state_main&#45;&gt;Keygen_state_generate_oem -->
<g id="edge13" class="edge"><title>Keygen_state_main&#45;&gt;Keygen_state_generate_oem</title>
<g id="a_edge13"><a xlink:title="From main to generate_oem on oem">
<path fill="none" stroke="black" d="M687.197,-607.976C742.716,-602.324 850.775,-586.02 930,-541 962.952,-522.275 976.518,-519.51 996,-487 1003.87,-473.861 1007.42,-457.132 1008.98,-443.214"/>
<polygon fill="black" stroke="black" points="1012.47,-443.483 1009.82,-433.224 1005.5,-442.895 1012.47,-443.483"/>
</a>
</g>
<text text-anchor="middle" x="996.053" y="-518.8" font-family="Times,serif" font-size="14.00">oem</text>
</g>
<!-- Keygen_state_for_loop_at_N -->
<g id="node13" class="node"><title>Keygen_state_for_loop_at_N</title>
<g id="a_node13"><a xlink:title="Class Keygen, SM state, State for_loop_at_N">
<path fill="none" stroke="black" d="M909.425,-541C909.425,-541 834.575,-541 834.575,-541 828.575,-541 822.575,-535 822.575,-529 822.575,-529 822.575,-517 822.575,-517 822.575,-511 828.575,-505 834.575,-505 834.575,-505 909.425,-505 909.425,-505 915.425,-505 921.425,-511 921.425,-517 921.425,-517 921.425,-529 921.425,-529 921.425,-535 915.425,-541 909.425,-541"/>
<text text-anchor="middle" x="872" y="-518.8" font-family="Times,serif" font-size="14.00">for_loop_at_N</text>
</a>
</g>
</g>
<!-- Keygen_state_main&#45;&gt;Keygen_state_for_loop_at_N -->
<g id="edge15" class="edge"><title>Keygen_state_main&#45;&gt;Keygen_state_for_loop_at_N</title>
<g id="a_edge15"><a xlink:title="From main to for_loop_at_N on N_given">
<path fill="none" stroke="black" d="M687.494,-596.467C723.359,-582.38 778.476,-560.733 819.135,-544.763"/>
<polygon fill="black" stroke="black" points="820.589,-547.952 828.618,-541.039 818.03,-541.437 820.589,-547.952"/>
</a>
</g>
<text text-anchor="middle" x="806.106" y="-563.2" font-family="Times,serif" font-size="14.00">N_given</text>
</g>
<!-- Keygen_state_oem_debug -->
<g id="node16" class="node"><title>Keygen_state_oem_debug</title>
<g id="a_node16"><a xlink:title="Class Keygen, SM state, State oem_debug">
<path fill="none" stroke="black" d="M643.82,-163C643.82,-163 586.18,-163 586.18,-163 580.18,-163 574.18,-157 574.18,-151 574.18,-151 574.18,-139 574.18,-139 574.18,-133 580.18,-127 586.18,-127 586.18,-127 643.82,-127 643.82,-127 649.82,-127 655.82,-133 655.82,-139 655.82,-139 655.82,-151 655.82,-151 655.82,-157 649.82,-163 643.82,-163"/>
<text text-anchor="middle" x="615" y="-140.8" font-family="Times,serif" font-size="14.00">oem_debug</text>
</a>
</g>
</g>
<!-- Keygen_state_main&#45;&gt;Keygen_state_oem_debug -->
<g id="edge18" class="edge"><title>Keygen_state_main&#45;&gt;Keygen_state_oem_debug</title>
<g id="a_edge18"><a xlink:title="From main to oem_debug on oem_AND_debug">
<path fill="none" stroke="black" d="M651,-593.508C651,-575.99 651,-548.111 651,-524 651,-524 651,-524 651,-252 651,-223.645 639.308,-193.182 629.25,-172.223"/>
<polygon fill="black" stroke="black" points="632.253,-170.402 624.647,-163.026 625.993,-173.535 632.253,-170.402"/>
</a>
</g>
<text text-anchor="middle" x="702.32" y="-410.8" font-family="Times,serif" font-size="14.00">oem_AND_debug</text>
</g>
<!-- Keygen_state_cd_debug -->
<g id="node17" class="node"><title>Keygen_state_cd_debug</title>
<g id="a_node17"><a xlink:title="Class Keygen, SM state, State cd_debug">
<path fill="none" stroke="black" d="M284,-487C284,-487 236,-487 236,-487 230,-487 224,-481 224,-475 224,-475 224,-463 224,-463 224,-457 230,-451 236,-451 236,-451 284,-451 284,-451 290,-451 296,-457 296,-463 296,-463 296,-475 296,-475 296,-481 290,-487 284,-487"/>
<text text-anchor="middle" x="260" y="-464.8" font-family="Times,serif" font-size="14.00">cd_debug</text>
</a>
</g>
</g>
<!-- Keygen_state_main&#45;&gt;Keygen_state_cd_debug -->
<g id="edge19" class="edge"><title>Keygen_state_main&#45;&gt;Keygen_state_cd_debug</title>
<g id="a_edge19"><a xlink:title="From main to cd_debug on cd_AND_debug">
<path fill="none" stroke="black" d="M614.722,-610.286C522.188,-608.599 282.985,-601.749 259.251,-575.8 240.137,-554.902 244.318,-520.799 250.668,-496.977"/>
<polygon fill="black" stroke="black" points="254.094,-497.735 253.561,-487.154 247.379,-495.758 254.094,-497.735"/>
</a>
</g>
<text text-anchor="middle" x="305.874" y="-563.2" font-family="Times,serif" font-size="14.00">cd_AND_debug</text>
</g>
<!-- Keygen_state_exit_3 -->
<g id="node23" class="node"><title>Keygen_state_exit_3</title>
<g id="a_node23"><a xlink:title="Class Keygen, SM state, State exit_3">
<path fill="none" stroke="black" d="M1387,-541C1387,-541 1339,-541 1339,-541 1333,-541 1327,-535 1327,-529 1327,-529 1327,-517 1327,-517 1327,-511 1333,-505 1339,-505 1339,-505 1387,-505 1387,-505 1393,-505 1399,-511 1399,-517 1399,-517 1399,-529 1399,-529 1399,-535 1393,-541 1387,-541"/>
<text text-anchor="middle" x="1363" y="-518.8" font-family="Times,serif" font-size="14.00">exit_3</text>
</a>
</g>
</g>
<!-- Keygen_state_main&#45;&gt;Keygen_state_exit_3 -->
<g id="edge34" class="edge"><title>Keygen_state_main&#45;&gt;Keygen_state_exit_3</title>
<g id="a_edge34"><a xlink:title="From main to exit_3 on tooManyArguments">
<path fill="none" stroke="black" d="M687.103,-610.431C817.011,-608.892 1256,-601.801 1313,-575.8 1325.83,-569.947 1337.07,-559.19 1345.62,-548.99"/>
<polygon fill="black" stroke="black" points="1348.45,-551.055 1351.88,-541.032 1342.94,-546.726 1348.45,-551.055"/>
</a>
</g>
<text text-anchor="middle" x="1392.38" y="-563.2" font-family="Times,serif" font-size="14.00">tooManyArguments</text>
</g>
<!-- Keygen_state_exit_8 -->
<g id="node28" class="node"><title>Keygen_state_exit_8</title>
<g id="a_node28"><a xlink:title="Class Keygen, SM state, State exit_8">
<path fill="none" stroke="black" d="M1309,-271C1309,-271 1261,-271 1261,-271 1255,-271 1249,-265 1249,-259 1249,-259 1249,-247 1249,-247 1249,-241 1255,-235 1261,-235 1261,-235 1309,-235 1309,-235 1315,-235 1321,-241 1321,-247 1321,-247 1321,-259 1321,-259 1321,-265 1315,-271 1309,-271"/>
<text text-anchor="middle" x="1285" y="-248.8" font-family="Times,serif" font-size="14.00">exit_8</text>
</a>
</g>
</g>
<!-- Keygen_state_main&#45;&gt;Keygen_state_exit_8 -->
<g id="edge40" class="edge"><title>Keygen_state_main&#45;&gt;Keygen_state_exit_8</title>
<g id="a_edge40"><a xlink:title="From main to exit_8 on end_of_script_error">
<path fill="none" stroke="black" d="M687.228,-609.794C823.693,-605.53 1299,-586.215 1299,-524 1299,-524 1299,-524 1299,-360 1299,-333.004 1294.48,-302.472 1290.58,-281.133"/>
<polygon fill="black" stroke="black" points="1293.99,-280.334 1288.68,-271.166 1287.11,-281.645 1293.99,-280.334"/>
</a>
</g>
<text text-anchor="middle" x="1354.59" y="-464.8" font-family="Times,serif" font-size="14.00">end_of_script_error</text>
</g>
<!-- Keygen_state_exit_1 -->
<g id="node21" class="node"><title>Keygen_state_exit_1</title>
<g id="a_node21"><a xlink:title="Class Keygen, SM state, State exit_1">
<path fill="none" stroke="black" d="M60,-433C60,-433 12,-433 12,-433 6,-433 0,-427 0,-421 0,-421 0,-409 0,-409 0,-403 6,-397 12,-397 12,-397 60,-397 60,-397 66,-397 72,-403 72,-409 72,-409 72,-421 72,-421 72,-427 66,-433 60,-433"/>
<text text-anchor="middle" x="36" y="-410.8" font-family="Times,serif" font-size="14.00">exit_1</text>
</a>
</g>
</g>
<!-- Keygen_state_usage&#45;&gt;Keygen_state_exit_1 -->
<g id="edge32" class="edge"><title>Keygen_state_usage&#45;&gt;Keygen_state_exit_1</title>
<g id="a_edge32"><a xlink:title="From usage to exit_1 automatically">
<path fill="none" stroke="black" d="M36,-504.969C36,-488.378 36,-462.883 36,-443.431"/>
<polygon fill="black" stroke="black" points="39.5001,-443.341 36,-433.341 32.5001,-443.341 39.5001,-443.341"/>
</a>
</g>
</g>
<!-- Keygen_state_exit_0 -->
<g id="node20" class="node"><title>Keygen_state_exit_0</title>
<g id="a_node20"><a xlink:title="Class Keygen, SM state, State exit_0">
<path fill="none" stroke="black" d="M422,-36C422,-36 374,-36 374,-36 368,-36 362,-30 362,-24 362,-24 362,-12 362,-12 362,-6 368,-0 374,-0 374,-0 422,-0 422,-0 428,-0 434,-6 434,-12 434,-12 434,-24 434,-24 434,-30 428,-36 422,-36"/>
<text text-anchor="middle" x="398" y="-13.8" font-family="Times,serif" font-size="14.00">exit_0</text>
</a>
</g>
</g>
<!-- Keygen_state_help&#45;&gt;Keygen_state_exit_0 -->
<g id="edge25" class="edge"><title>Keygen_state_help&#45;&gt;Keygen_state_exit_0</title>
<g id="a_edge25"><a xlink:title="From help to exit_0 automatically">
<path fill="none" stroke="black" d="M338.621,-450.942C328.253,-430.457 313,-394.752 313,-362 313,-362 313,-362 313,-90 313,-66.3836 332.566,-49.0851 352.924,-37.4784"/>
<polygon fill="black" stroke="black" points="354.753,-40.4703 361.952,-32.6975 351.477,-34.284 354.753,-40.4703"/>
</a>
</g>
</g>
<!-- Keygen_state_license&#45;&gt;Keygen_state_exit_0 -->
<g id="edge26" class="edge"><title>Keygen_state_license&#45;&gt;Keygen_state_exit_0</title>
<g id="a_edge26"><a xlink:title="From license to exit_0 automatically">
<path fill="none" stroke="black" d="M372.229,-342.766C363.638,-322.111 351,-286.244 351,-254 351,-254 351,-254 351,-90 351,-72.7808 360.731,-56.5317 371.337,-43.9351"/>
<polygon fill="black" stroke="black" points="374.216,-45.9705 378.34,-36.2112 369.03,-41.2687 374.216,-45.9705"/>
</a>
</g>
</g>
<!-- Keygen_state_validate_oem -->
<g id="node7" class="node"><title>Keygen_state_validate_oem</title>
<g id="a_node7"><a xlink:title="Class Keygen, SM state, State validate_oem">
<path fill="none" stroke="black" d="M602.922,-433C602.922,-433 535.078,-433 535.078,-433 529.078,-433 523.078,-427 523.078,-421 523.078,-421 523.078,-409 523.078,-409 523.078,-403 529.078,-397 535.078,-397 535.078,-397 602.922,-397 602.922,-397 608.922,-397 614.922,-403 614.922,-409 614.922,-409 614.922,-421 614.922,-421 614.922,-427 608.922,-433 602.922,-433"/>
<text text-anchor="middle" x="569" y="-410.8" font-family="Times,serif" font-size="14.00">validate_oem</text>
</a>
</g>
</g>
<!-- Keygen_state_validate&#45;&gt;Keygen_state_validate_oem -->
<g id="edge6" class="edge"><title>Keygen_state_validate&#45;&gt;Keygen_state_validate_oem</title>
<g id="a_edge6"><a xlink:title="From validate to validate_oem on OEM_in_str">
<path fill="none" stroke="black" d="M560.607,-504.969C562.172,-488.378 564.577,-462.883 566.412,-443.431"/>
<polygon fill="black" stroke="black" points="569.909,-443.625 567.364,-433.341 562.94,-442.968 569.909,-443.625"/>
</a>
</g>
<text text-anchor="middle" x="600.995" y="-464.8" font-family="Times,serif" font-size="14.00">OEM_in_str</text>
</g>
<!-- Keygen_state_validate_cd -->
<g id="node8" class="node"><title>Keygen_state_validate_cd</title>
<g id="a_node8"><a xlink:title="Class Keygen, SM state, State validate_cd">
<path fill="none" stroke="black" d="M493.032,-433C493.032,-433 436.968,-433 436.968,-433 430.968,-433 424.968,-427 424.968,-421 424.968,-421 424.968,-409 424.968,-409 424.968,-403 430.968,-397 436.968,-397 436.968,-397 493.032,-397 493.032,-397 499.032,-397 505.032,-403 505.032,-409 505.032,-409 505.032,-421 505.032,-421 505.032,-427 499.032,-433 493.032,-433"/>
<text text-anchor="middle" x="465" y="-410.8" font-family="Times,serif" font-size="14.00">validate_cd</text>
</a>
</g>
</g>
<!-- Keygen_state_validate&#45;&gt;Keygen_state_validate_cd -->
<g id="edge7" class="edge"><title>Keygen_state_validate&#45;&gt;Keygen_state_validate_cd</title>
<g id="a_edge7"><a xlink:title="From validate to validate_cd on OEM_not_in_str">
<path fill="none" stroke="black" d="M522.794,-513.235C499.062,-506.673 471.172,-497.119 464.119,-487 455.413,-474.509 455.313,-457.543 457.541,-443.328"/>
<polygon fill="black" stroke="black" points="461.055,-443.608 459.595,-433.114 454.192,-442.228 461.055,-443.608"/>
</a>
</g>
<text text-anchor="middle" x="512.44" y="-464.8" font-family="Times,serif" font-size="14.00">OEM_not_in_str</text>
</g>
<!-- Keygen_state_format_validation -->
<g id="node9" class="node"><title>Keygen_state_format_validation</title>
<g id="a_node9"><a xlink:title="Class Keygen, SM state, State format_validation">
<path fill="none" stroke="black" d="M611.309,-325C611.309,-325 518.691,-325 518.691,-325 512.691,-325 506.691,-319 506.691,-313 506.691,-313 506.691,-301 506.691,-301 506.691,-295 512.691,-289 518.691,-289 518.691,-289 611.309,-289 611.309,-289 617.309,-289 623.309,-295 623.309,-301 623.309,-301 623.309,-313 623.309,-313 623.309,-319 617.309,-325 611.309,-325"/>
<text text-anchor="middle" x="565" y="-302.8" font-family="Times,serif" font-size="14.00">format_validation</text>
</a>
</g>
</g>
<!-- Keygen_state_validate_oem&#45;&gt;Keygen_state_format_validation -->
<g id="edge8" class="edge"><title>Keygen_state_validate_oem&#45;&gt;Keygen_state_format_validation</title>
<g id="a_edge8"><a xlink:title="From validate_oem to format_validation automatically">
<path fill="none" stroke="black" d="M568.357,-396.969C567.731,-380.378 566.769,-354.883 566.035,-335.431"/>
<polygon fill="black" stroke="black" points="569.529,-335.201 565.654,-325.341 562.534,-335.466 569.529,-335.201"/>
</a>
</g>
</g>
<!-- Keygen_state_validate_cd&#45;&gt;Keygen_state_format_validation -->
<g id="edge9" class="edge"><title>Keygen_state_validate_cd&#45;&gt;Keygen_state_format_validation</title>
<g id="a_edge9"><a xlink:title="From validate_cd to format_validation automatically">
<path fill="none" stroke="black" d="M481.067,-396.969C497.443,-379.61 523.016,-352.503 541.633,-332.769"/>
<polygon fill="black" stroke="black" points="544.325,-335.016 548.641,-325.341 539.233,-330.213 544.325,-335.016"/>
</a>
</g>
</g>
<!-- Keygen_state_mathematical_validation -->
<g id="node10" class="node"><title>Keygen_state_mathematical_validation</title>
<g id="a_node10"><a xlink:title="Class Keygen, SM state, State mathematical_validation">
<path fill="none" stroke="black" d="M521.409,-217C521.409,-217 390.591,-217 390.591,-217 384.591,-217 378.591,-211 378.591,-205 378.591,-205 378.591,-193 378.591,-193 378.591,-187 384.591,-181 390.591,-181 390.591,-181 521.409,-181 521.409,-181 527.409,-181 533.409,-187 533.409,-193 533.409,-193 533.409,-205 533.409,-205 533.409,-211 527.409,-217 521.409,-217"/>
<text text-anchor="middle" x="456" y="-194.8" font-family="Times,serif" font-size="14.00">mathematical_validation</text>
</a>
</g>
</g>
<!-- Keygen_state_format_validation&#45;&gt;Keygen_state_mathematical_validation -->
<g id="edge10" class="edge"><title>Keygen_state_format_validation&#45;&gt;Keygen_state_mathematical_validation</title>
<g id="a_edge10"><a xlink:title="From format_validation to mathematical_validation on true">
<path fill="none" stroke="black" d="M547.487,-288.969C529.558,-271.533 501.516,-244.263 481.201,-224.508"/>
<polygon fill="black" stroke="black" points="483.441,-221.803 473.831,-217.341 478.56,-226.822 483.441,-221.803"/>
</a>
</g>
<text text-anchor="middle" x="537.883" y="-248.8" font-family="Times,serif" font-size="14.00">true</text>
</g>
<!-- Keygen_state_exit_4 -->
<g id="node24" class="node"><title>Keygen_state_exit_4</title>
<g id="a_node24"><a xlink:title="Class Keygen, SM state, State exit_4">
<path fill="none" stroke="black" d="M611,-217C611,-217 563,-217 563,-217 557,-217 551,-211 551,-205 551,-205 551,-193 551,-193 551,-187 557,-181 563,-181 563,-181 611,-181 611,-181 617,-181 623,-187 623,-193 623,-193 623,-205 623,-205 623,-211 617,-217 611,-217"/>
<text text-anchor="middle" x="587" y="-194.8" font-family="Times,serif" font-size="14.00">exit_4</text>
</a>
</g>
</g>
<!-- Keygen_state_format_validation&#45;&gt;Keygen_state_exit_4 -->
<g id="edge35" class="edge"><title>Keygen_state_format_validation&#45;&gt;Keygen_state_exit_4</title>
<g id="a_edge35"><a xlink:title="From format_validation to exit_4 on false">
<path fill="none" stroke="black" d="M568.535,-288.969C571.994,-272.301 577.319,-246.646 581.363,-227.161"/>
<polygon fill="black" stroke="black" points="584.796,-227.843 583.401,-217.341 577.942,-226.421 584.796,-227.843"/>
</a>
</g>
<text text-anchor="middle" x="593.212" y="-248.8" font-family="Times,serif" font-size="14.00">false</text>
</g>
<!-- Keygen_state_exit_6 -->
<g id="node26" class="node"><title>Keygen_state_exit_6</title>
<g id="a_node26"><a xlink:title="Class Keygen, SM state, State exit_6">
<path fill="none" stroke="black" d="M957,-217C957,-217 909,-217 909,-217 903,-217 897,-211 897,-205 897,-205 897,-193 897,-193 897,-187 903,-181 909,-181 909,-181 957,-181 957,-181 963,-181 969,-187 969,-193 969,-193 969,-205 969,-205 969,-211 963,-217 957,-217"/>
<text text-anchor="middle" x="933" y="-194.8" font-family="Times,serif" font-size="14.00">exit_6</text>
</a>
</g>
</g>
<!-- Keygen_state_format_validation&#45;&gt;Keygen_state_exit_6 -->
<g id="edge37" class="edge"><title>Keygen_state_format_validation&#45;&gt;Keygen_state_exit_6</title>
<g id="a_edge37"><a xlink:title="From format_validation to exit_6 on internal_error">
<path fill="none" stroke="black" d="M623.416,-296.241C640.052,-293.661 658.214,-291.032 675,-289 720.399,-283.505 841.121,-295.078 880,-271 895.95,-261.122 890.886,-250.084 902.042,-235 904.469,-231.718 907.138,-228.375 909.859,-225.12"/>
<polygon fill="black" stroke="black" points="912.73,-227.152 916.627,-217.3 907.436,-222.572 912.73,-227.152"/>
</a>
</g>
<text text-anchor="middle" x="941.479" y="-248.8" font-family="Times,serif" font-size="14.00">internal_error</text>
</g>
<!-- Keygen_state_mathematical_validation&#45;&gt;Keygen_state_exit_0 -->
<g id="edge27" class="edge"><title>Keygen_state_mathematical_validation&#45;&gt;Keygen_state_exit_0</title>
<g id="a_edge27"><a xlink:title="From mathematical_validation to exit_0 on true">
<path fill="none" stroke="black" d="M443.888,-180.871C432.355,-163.603 415.56,-135.748 407.234,-109 400.903,-88.6604 398.689,-64.6124 398.006,-46.4936"/>
<polygon fill="black" stroke="black" points="401.501,-46.2362 397.758,-36.3244 394.503,-46.4067 401.501,-46.2362"/>
</a>
</g>
<text text-anchor="middle" x="418.883" y="-86.8" font-family="Times,serif" font-size="14.00">true</text>
</g>
<!-- Keygen_state_exit_5 -->
<g id="node25" class="node"><title>Keygen_state_exit_5</title>
<g id="a_node25"><a xlink:title="Class Keygen, SM state, State exit_5">
<path fill="none" stroke="black" d="M498,-109C498,-109 450,-109 450,-109 444,-109 438,-103 438,-97 438,-97 438,-85 438,-85 438,-79 444,-73 450,-73 450,-73 498,-73 498,-73 504,-73 510,-79 510,-85 510,-85 510,-97 510,-97 510,-103 504,-109 498,-109"/>
<text text-anchor="middle" x="474" y="-86.8" font-family="Times,serif" font-size="14.00">exit_5</text>
</a>
</g>
</g>
<!-- Keygen_state_mathematical_validation&#45;&gt;Keygen_state_exit_5 -->
<g id="edge36" class="edge"><title>Keygen_state_mathematical_validation&#45;&gt;Keygen_state_exit_5</title>
<g id="a_edge36"><a xlink:title="From mathematical_validation to exit_5 on false">
<path fill="none" stroke="black" d="M458.892,-180.969C461.709,-164.378 466.039,-138.883 469.342,-119.431"/>
<polygon fill="black" stroke="black" points="472.832,-119.785 471.055,-109.341 465.931,-118.613 472.832,-119.785"/>
</a>
</g>
<text text-anchor="middle" x="481.212" y="-140.8" font-family="Times,serif" font-size="14.00">false</text>
</g>
<!-- Keygen_state_check_cd -->
<g id="node15" class="node"><title>Keygen_state_check_cd</title>
<g id="a_node15"><a xlink:title="Class Keygen, SM state, State check_cd">
<path fill="none" stroke="black" d="M950,-325C950,-325 902,-325 902,-325 896,-325 890,-319 890,-313 890,-313 890,-301 890,-301 890,-295 896,-289 902,-289 902,-289 950,-289 950,-289 956,-289 962,-295 962,-301 962,-301 962,-313 962,-313 962,-319 956,-325 950,-325"/>
<text text-anchor="middle" x="926" y="-302.8" font-family="Times,serif" font-size="14.00">check_cd</text>
</a>
</g>
</g>
<!-- Keygen_state_generate_cd&#45;&gt;Keygen_state_check_cd -->
<g id="edge17" class="edge"><title>Keygen_state_generate_cd&#45;&gt;Keygen_state_check_cd</title>
<g id="a_edge17"><a xlink:title="From generate_cd to check_cd on ARG_3_c_or_check">
<path fill="none" stroke="black" d="M823.962,-396.815C834.301,-381.49 850.873,-359.058 868.931,-343 873.95,-338.537 879.61,-334.306 885.367,-330.429"/>
<polygon fill="black" stroke="black" points="887.278,-333.361 893.807,-325.017 883.5,-327.469 887.278,-333.361"/>
</a>
</g>
<text text-anchor="middle" x="926.534" y="-356.8" font-family="Times,serif" font-size="14.00">ARG_3_c_or_check</text>
</g>
<!-- Keygen_state_toString -->
<g id="node18" class="node"><title>Keygen_state_toString</title>
<g id="a_node18"><a xlink:title="Class Keygen, SM state, State toString">
<path fill="none" stroke="black" d="M846,-217C846,-217 798,-217 798,-217 792,-217 786,-211 786,-205 786,-205 786,-193 786,-193 786,-187 792,-181 798,-181 798,-181 846,-181 846,-181 852,-181 858,-187 858,-193 858,-193 858,-205 858,-205 858,-211 852,-217 846,-217"/>
<text text-anchor="middle" x="822" y="-194.8" font-family="Times,serif" font-size="14.00">toString</text>
</a>
</g>
</g>
<!-- Keygen_state_generate_cd&#45;&gt;Keygen_state_toString -->
<g id="edge20" class="edge"><title>Keygen_state_generate_cd&#45;&gt;Keygen_state_toString</title>
<g id="a_edge20"><a xlink:title="From generate_cd to toString on display_key_without_checking">
<path fill="none" stroke="black" d="M779.329,-396.884C740.386,-374.583 684.242,-333.19 706.032,-289 720.791,-259.069 750.985,-236.404 776.864,-221.438"/>
<polygon fill="black" stroke="black" points="778.766,-224.385 785.805,-216.466 775.364,-218.267 778.766,-224.385"/>
</a>
</g>
<text text-anchor="middle" x="794.484" y="-302.8" font-family="Times,serif" font-size="14.00">display_key_without_checking</text>
</g>
<!-- Keygen_state_check_oem -->
<g id="node14" class="node"><title>Keygen_state_check_oem</title>
<g id="a_node14"><a xlink:title="Class Keygen, SM state, State check_oem">
<path fill="none" stroke="black" d="M1258.75,-325C1258.75,-325 1203.25,-325 1203.25,-325 1197.25,-325 1191.25,-319 1191.25,-313 1191.25,-313 1191.25,-301 1191.25,-301 1191.25,-295 1197.25,-289 1203.25,-289 1203.25,-289 1258.75,-289 1258.75,-289 1264.75,-289 1270.75,-295 1270.75,-301 1270.75,-301 1270.75,-313 1270.75,-313 1270.75,-319 1264.75,-325 1258.75,-325"/>
<text text-anchor="middle" x="1231" y="-302.8" font-family="Times,serif" font-size="14.00">check_oem</text>
</a>
</g>
</g>
<!-- Keygen_state_generate_oem&#45;&gt;Keygen_state_check_oem -->
<g id="edge16" class="edge"><title>Keygen_state_generate_oem&#45;&gt;Keygen_state_check_oem</title>
<g id="a_edge16"><a xlink:title="From generate_oem to check_oem on ARG_3_c_or_check">
<path fill="none" stroke="black" d="M1045.51,-396.969C1083.74,-378.634 1144.64,-349.424 1186.15,-329.513"/>
<polygon fill="black" stroke="black" points="1187.71,-332.645 1195.21,-325.164 1184.68,-326.333 1187.71,-332.645"/>
</a>
</g>
<text text-anchor="middle" x="1211.53" y="-356.8" font-family="Times,serif" font-size="14.00">ARG_3_c_or_check</text>
</g>
<!-- Keygen_state_generate_oem&#45;&gt;Keygen_state_toString -->
<g id="edge21" class="edge"><title>Keygen_state_generate_oem&#45;&gt;Keygen_state_toString</title>
<g id="a_edge21"><a xlink:title="From generate_oem to toString on display_key_without_checking">
<path fill="none" stroke="black" d="M1009.95,-396.82C1009.47,-356.589 1006.02,-257.94 984,-235 953.942,-203.68 930.376,-226.419 888,-217 881.481,-215.551 874.629,-213.915 867.907,-212.244"/>
<polygon fill="black" stroke="black" points="868.759,-208.849 858.206,-209.79 867.042,-215.636 868.759,-208.849"/>
</a>
</g>
<text text-anchor="middle" x="1094.48" y="-302.8" font-family="Times,serif" font-size="14.00">display_key_without_checking</text>
</g>
<!-- Keygen_state_for_loop_at_N&#45;&gt;Keygen_state_generate_cd -->
<g id="edge12" class="edge"><title>Keygen_state_for_loop_at_N&#45;&gt;Keygen_state_generate_cd</title>
<g id="a_edge12"><a xlink:title="From for_loop_at_N to generate_cd on cd">
<path fill="none" stroke="black" d="M862.521,-504.969C853.072,-487.994 838.435,-461.698 827.522,-442.09"/>
<polygon fill="black" stroke="black" points="830.574,-440.376 822.652,-433.341 824.457,-443.781 830.574,-440.376"/>
</a>
</g>
<text text-anchor="middle" x="858.607" y="-464.8" font-family="Times,serif" font-size="14.00">cd</text>
</g>
<!-- Keygen_state_for_loop_at_N&#45;&gt;Keygen_state_generate_oem -->
<g id="edge14" class="edge"><title>Keygen_state_for_loop_at_N&#45;&gt;Keygen_state_generate_oem</title>
<g id="a_edge14"><a xlink:title="From for_loop_at_N to generate_oem on oem">
<path fill="none" stroke="black" d="M920.982,-504.891C930.904,-500.06 940.798,-494.128 949,-487 963.312,-474.561 959.721,-465.537 971.895,-451 974.977,-447.32 978.432,-443.651 981.971,-440.149"/>
<polygon fill="black" stroke="black" points="984.406,-442.664 989.26,-433.246 979.593,-437.581 984.406,-442.664"/>
</a>
</g>
<text text-anchor="middle" x="984.053" y="-464.8" font-family="Times,serif" font-size="14.00">oem</text>
</g>
<!-- Keygen_state_exit_2 -->
<g id="node22" class="node"><title>Keygen_state_exit_2</title>
<g id="a_node22"><a xlink:title="Class Keygen, SM state, State exit_2">
<path fill="none" stroke="black" d="M933,-433C933,-433 885,-433 885,-433 879,-433 873,-427 873,-421 873,-421 873,-409 873,-409 873,-403 879,-397 885,-397 885,-397 933,-397 933,-397 939,-397 945,-403 945,-409 945,-409 945,-421 945,-421 945,-427 939,-433 933,-433"/>
<text text-anchor="middle" x="909" y="-410.8" font-family="Times,serif" font-size="14.00">exit_2</text>
</a>
</g>
</g>
<!-- Keygen_state_for_loop_at_N&#45;&gt;Keygen_state_exit_2 -->
<g id="edge33" class="edge"><title>Keygen_state_for_loop_at_N&#45;&gt;Keygen_state_exit_2</title>
<g id="a_edge33"><a xlink:title="From for_loop_at_N to exit_2 on invalid_N">
<path fill="none" stroke="black" d="M876.346,-504.85C880.198,-490.331 886.248,-469.058 893.007,-451 894.039,-448.243 895.189,-445.398 896.387,-442.578"/>
<polygon fill="black" stroke="black" points="899.673,-443.803 900.537,-433.243 893.276,-440.959 899.673,-443.803"/>
</a>
</g>
<text text-anchor="middle" x="921.996" y="-464.8" font-family="Times,serif" font-size="14.00">invalid_N</text>
</g>
<!-- Keygen_state_check_oem&#45;&gt;Keygen_state_toString -->
<g id="edge22" class="edge"><title>Keygen_state_check_oem&#45;&gt;Keygen_state_toString</title>
<g id="a_edge22"><a xlink:title="From check_oem to toString on true">
<path fill="none" stroke="black" d="M1190.94,-291.984C1173.21,-285.697 1152.13,-278.109 1133.23,-271 1092.43,-255.652 1084.28,-245.62 1042,-235 975.166,-218.212 955.744,-229.623 888,-217 881.435,-215.777 874.557,-214.267 867.823,-212.655"/>
<polygon fill="black" stroke="black" points="868.662,-209.258 858.113,-210.244 866.975,-216.051 868.662,-209.258"/>
</a>
</g>
<text text-anchor="middle" x="1144.88" y="-248.8" font-family="Times,serif" font-size="14.00">true</text>
</g>
<!-- Keygen_state_exit_7 -->
<g id="node27" class="node"><title>Keygen_state_exit_7</title>
<g id="a_node27"><a xlink:title="Class Keygen, SM state, State exit_7">
<path fill="none" stroke="black" d="M1058,-217C1058,-217 1010,-217 1010,-217 1004,-217 998,-211 998,-205 998,-205 998,-193 998,-193 998,-187 1004,-181 1010,-181 1010,-181 1058,-181 1058,-181 1064,-181 1070,-187 1070,-193 1070,-193 1070,-205 1070,-205 1070,-211 1064,-217 1058,-217"/>
<text text-anchor="middle" x="1034" y="-194.8" font-family="Times,serif" font-size="14.00">exit_7</text>
</a>
</g>
</g>
<!-- Keygen_state_check_oem&#45;&gt;Keygen_state_exit_7 -->
<g id="edge38" class="edge"><title>Keygen_state_check_oem&#45;&gt;Keygen_state_exit_7</title>
<g id="a_edge38"><a xlink:title="From check_oem to exit_7 on false">
<path fill="none" stroke="black" d="M1217.97,-288.871C1204.8,-272.702 1182.99,-248.919 1159,-235 1134.76,-220.935 1104.57,-212.276 1079.93,-207.089"/>
<polygon fill="black" stroke="black" points="1080.59,-203.651 1070.1,-205.138 1079.22,-210.517 1080.59,-203.651"/>
</a>
</g>
<text text-anchor="middle" x="1215.21" y="-248.8" font-family="Times,serif" font-size="14.00">false</text>
</g>
<!-- Keygen_state_check_cd&#45;&gt;Keygen_state_toString -->
<g id="edge23" class="edge"><title>Keygen_state_check_cd&#45;&gt;Keygen_state_toString</title>
<g id="a_edge23"><a xlink:title="From check_cd to toString on true">
<path fill="none" stroke="black" d="M889.833,-292.462C878.727,-287.035 867.107,-279.917 858.234,-271 845.861,-258.567 836.858,-241.04 830.921,-226.512"/>
<polygon fill="black" stroke="black" points="834.137,-225.123 827.296,-217.032 827.598,-227.623 834.137,-225.123"/>
</a>
</g>
<text text-anchor="middle" x="869.883" y="-248.8" font-family="Times,serif" font-size="14.00">true</text>
</g>
<!-- Keygen_state_check_cd&#45;&gt;Keygen_state_exit_7 -->
<g id="edge39" class="edge"><title>Keygen_state_check_cd&#45;&gt;Keygen_state_exit_7</title>
<g id="a_edge39"><a xlink:title="From check_cd to exit_7 on false">
<path fill="none" stroke="black" d="M958.944,-288.829C967.266,-283.696 975.858,-277.644 983,-271 997.038,-257.941 1009.64,-240.481 1018.81,-226.144"/>
<polygon fill="black" stroke="black" points="1022.02,-227.595 1024.31,-217.251 1016.07,-223.91 1022.02,-227.595"/>
</a>
</g>
<text text-anchor="middle" x="1025.21" y="-248.8" font-family="Times,serif" font-size="14.00">false</text>
</g>
<!-- Keygen_state_oem_debug&#45;&gt;Keygen_state_exit_0 -->
<g id="edge28" class="edge"><title>Keygen_state_oem_debug&#45;&gt;Keygen_state_exit_0</title>
<g id="a_edge28"><a xlink:title="From oem_debug to exit_0 automatically">
<path fill="none" stroke="black" d="M587.046,-126.888C578.522,-121.404 569.233,-115.153 561,-109 541.307,-94.2812 539.775,-86.1466 519,-73 495.337,-58.0262 466.82,-45.083 443.414,-35.625"/>
<polygon fill="black" stroke="black" points="444.643,-32.3473 434.057,-31.9179 442.065,-38.8552 444.643,-32.3473"/>
</a>
</g>
</g>
<!-- Keygen_state_cd_debug&#45;&gt;Keygen_state_exit_0 -->
<g id="edge29" class="edge"><title>Keygen_state_cd_debug&#45;&gt;Keygen_state_exit_0</title>
<g id="a_edge29"><a xlink:title="From cd_debug to exit_0 automatically">
<path fill="none" stroke="black" d="M262.627,-450.789C265.59,-429.857 270,-393.424 270,-362 270,-362 270,-362 270,-90 270,-51.4413 314.967,-33.6482 351.597,-25.5506"/>
<polygon fill="black" stroke="black" points="352.555,-28.9277 361.663,-23.5146 351.167,-22.0667 352.555,-28.9277"/>
</a>
</g>
</g>
<!-- Keygen_state_print_enumeration_and_key_types -->
<g id="node19" class="node"><title>Keygen_state_print_enumeration_and_key_types</title>
<g id="a_node19"><a xlink:title="Class Keygen, SM state, State print_enumeration_and_key_types">
<path fill="none" stroke="black" d="M768.397,-109C768.397,-109 581.603,-109 581.603,-109 575.603,-109 569.603,-103 569.603,-97 569.603,-97 569.603,-85 569.603,-85 569.603,-79 575.603,-73 581.603,-73 581.603,-73 768.397,-73 768.397,-73 774.397,-73 780.397,-79 780.397,-85 780.397,-85 780.397,-97 780.397,-97 780.397,-103 774.397,-109 768.397,-109"/>
<text text-anchor="middle" x="675" y="-86.8" font-family="Times,serif" font-size="14.00">print_enumeration_and_key_types</text>
</a>
</g>
</g>
<!-- Keygen_state_toString&#45;&gt;Keygen_state_print_enumeration_and_key_types -->
<g id="edge24" class="edge"><title>Keygen_state_toString&#45;&gt;Keygen_state_print_enumeration_and_key_types</title>
<g id="a_edge24"><a xlink:title="From toString to print_enumeration_and_key_types on else">
<path fill="none" stroke="black" d="M798.382,-180.969C773.669,-163.149 734.711,-135.057 707.192,-115.214"/>
<polygon fill="black" stroke="black" points="709.206,-112.351 699.048,-109.341 705.112,-118.028 709.206,-112.351"/>
</a>
</g>
<text text-anchor="middle" x="781.882" y="-140.8" font-family="Times,serif" font-size="14.00">else</text>
</g>
<!-- Keygen_state_toString&#45;&gt;Keygen_state_exit_0 -->
<g id="edge30" class="edge"><title>Keygen_state_toString&#45;&gt;Keygen_state_exit_0</title>
<g id="a_edge30"><a xlink:title="From toString to exit_0 on ARG_s_or_silent">
<path fill="none" stroke="black" d="M822.965,-180.842C823.474,-153.552 820.081,-100.534 789,-73 738.746,-28.4803 536.347,-20.4763 444.156,-19.1709"/>
<polygon fill="black" stroke="black" points="444.045,-15.6694 434.003,-19.0482 443.96,-22.6689 444.045,-15.6694"/>
</a>
</g>
<text text-anchor="middle" x="860.993" y="-86.8" font-family="Times,serif" font-size="14.00">ARG_s_or_silent</text>
</g>
<!-- Keygen_state_print_enumeration_and_key_types&#45;&gt;Keygen_state_exit_0 -->
<g id="edge31" class="edge"><title>Keygen_state_print_enumeration_and_key_types&#45;&gt;Keygen_state_exit_0</title>
<g id="a_edge31"><a xlink:title="From print_enumeration_and_key_types to exit_0 automatically">
<path fill="none" stroke="black" d="M621.172,-72.9497C600.566,-66.6602 576.782,-59.6872 555,-54 517.818,-44.2918 475.246,-34.9076 443.821,-28.3043"/>
<polygon fill="black" stroke="black" points="444.535,-24.8779 434.031,-26.2611 443.105,-31.7303 444.535,-24.8779"/>
</a>
</g>
</g>
<!-- Keygen_state_report -->
<g id="node29" class="node"><title>Keygen_state_report</title>
<g id="a_node29"><a xlink:title="Class Keygen, SM state, State report">
<path fill="none" stroke="black" d="M1058,-109C1058,-109 1010,-109 1010,-109 1004,-109 998,-103 998,-97 998,-97 998,-85 998,-85 998,-79 1004,-73 1010,-73 1010,-73 1058,-73 1058,-73 1064,-73 1070,-79 1070,-85 1070,-85 1070,-97 1070,-97 1070,-103 1064,-109 1058,-109"/>
<text text-anchor="middle" x="1034" y="-86.8" font-family="Times,serif" font-size="14.00">report</text>
</a>
</g>
</g>
<!-- Keygen_state_exit_6&#45;&gt;Keygen_state_report -->
<g id="edge41" class="edge"><title>Keygen_state_exit_6&#45;&gt;Keygen_state_report</title>
<g id="a_edge41"><a xlink:title="From exit_6 to report automatically">
<path fill="none" stroke="black" d="M949.227,-180.969C965.768,-163.61 991.596,-136.503 1010.4,-116.769"/>
<polygon fill="black" stroke="black" points="1013.11,-118.995 1017.48,-109.341 1008.05,-114.166 1013.11,-118.995"/>
</a>
</g>
</g>
<!-- Keygen_state_exit_7&#45;&gt;Keygen_state_report -->
<g id="edge42" class="edge"><title>Keygen_state_exit_7&#45;&gt;Keygen_state_report</title>
<g id="a_edge42"><a xlink:title="From exit_7 to report automatically">
<path fill="none" stroke="black" d="M1034,-180.969C1034,-164.378 1034,-138.883 1034,-119.431"/>
<polygon fill="black" stroke="black" points="1037.5,-119.341 1034,-109.341 1030.5,-119.341 1037.5,-119.341"/>
</a>
</g>
</g>
<!-- Keygen_state_exit_8&#45;&gt;Keygen_state_report -->
<g id="edge43" class="edge"><title>Keygen_state_exit_8&#45;&gt;Keygen_state_report</title>
<g id="a_edge43"><a xlink:title="From exit_8 to report automatically">
<path fill="none" stroke="black" d="M1258.14,-234.877C1212.68,-205.902 1120.59,-147.199 1069.74,-114.784"/>
<polygon fill="black" stroke="black" points="1071.36,-111.665 1061.05,-109.242 1067.6,-117.568 1071.36,-111.665"/>
</a>
</g>
</g>
<!-- Keygen_state_collectData_displayErrorReportInfo -->
<g id="node30" class="node"><title>Keygen_state_collectData_displayErrorReportInfo</title>
<g id="a_node30"><a xlink:title="Class Keygen, SM state, State collectData_displayErrorReportInfo">
<path fill="none" stroke="black" d="M1131.14,-36C1131.14,-36 936.86,-36 936.86,-36 930.86,-36 924.86,-30 924.86,-24 924.86,-24 924.86,-12 924.86,-12 924.86,-6 930.86,-0 936.86,-0 936.86,-0 1131.14,-0 1131.14,-0 1137.14,-0 1143.14,-6 1143.14,-12 1143.14,-12 1143.14,-24 1143.14,-24 1143.14,-30 1137.14,-36 1131.14,-36"/>
<text text-anchor="middle" x="1034" y="-13.8" font-family="Times,serif" font-size="14.00">collectData_displayErrorReportInfo</text>
</a>
</g>
</g>
<!-- Keygen_state_report&#45;&gt;Keygen_state_collectData_displayErrorReportInfo -->
<g id="edge44" class="edge"><title>Keygen_state_report&#45;&gt;Keygen_state_collectData_displayErrorReportInfo</title>
<g id="a_edge44"><a xlink:title="From report to collectData_displayErrorReportInfo automatically">
<path fill="none" stroke="black" d="M1034,-72.8129C1034,-64.7895 1034,-55.0475 1034,-46.0691"/>
<polygon fill="black" stroke="black" points="1037.5,-46.0288 1034,-36.0288 1030.5,-46.0289 1037.5,-46.0288"/>
</a>
</g>
</g>
</g>
</svg>
